PathFileType	4	(X/Y/Z)	s10c0101.trc
DataRate	CameraRate	NumFrames	NumMarkers	Units	OrigDataRate	OrigDataStartFrame	OrigNumFrames
200	200	6	49	mm	200	750	2000
Frame#	Time	racr			lacr			c7			jug			rlel			rdr			llel			ldr			s2			lic			ric			lasi			rasi			rpsi			lpsi			rgt			lgt			rth1			rth2			rth3			rth4			rlfc			rmfc			rsh1			rsh2			rsh3			rsh4			rlmal			rmmal			rcal			rtoe			rmt5			lth1			lth2			lth4			lth3			llfc			lmfc			llmal			lcal			lmt5			lsh1			lsh2			lsh3			lsh4			ltoe			SBIKE			LBIKE			RBIKE			
		X1	Y1	Z1	X2	Y2	Z2	X3	Y3	Z3	X4	Y4	Z4	X5	Y5	Z5	X6	Y6	Z6	X7	Y7	Z7	X8	Y8	Z8	X9	Y9	Z9	X10	Y10	Z10	X11	Y11	Z11	X12	Y12	Z12	X13	Y13	Z13	X14	Y14	Z14	X15	Y15	Z15	X16	Y16	Z16	X17	Y17	Z17	X18	Y18	Z18	X19	Y19	Z19	X20	Y20	Z20	X21	Y21	Z21	X22	Y22	Z22	X23	Y23	Z23	X24	Y24	Z24	X25	Y25	Z25	X26	Y26	Z26	X27	Y27	Z27	X28	Y28	Z28	X29	Y29	Z29	X30	Y30	Z30	X31	Y31	Z31	X32	Y32	Z32	X33	Y33	Z33	X34	Y34	Z34	X35	Y35	Z35	X36	Y36	Z36	X37	Y37	Z37	X38	Y38	Z38	X39	Y39	Z39	X40	Y40	Z40	X41	Y41	Z41	X42	Y42	Z42	X43	Y43	Z43	X44	Y44	Z44	X45	Y45	Z45	X46	Y46	Z46	X47	Y47	Z47	X48	Y48	Z48	X49	Y49	Z49	
750	3.7500	424.821242	1249.220471	-33.376920	444.849867	1269.838427	-343.119352	394.518640	1315.606473	-197.394657	386.991428	1162.217345	-198.104482	427.835642	978.852110	17.910782	630.906691	888.392177	-51.783994	464.133391	1017.853591	-467.748490	631.607555	876.283391	-411.296188	-127.442471	1104.618360	-226.797918	40.392324	1111.503272	-376.563910	49.182062	1127.616149	-79.510116	62.171033	1028.226610	-341.318285	42.496848	1046.452241	-82.301215	-89.192818	1165.152086	-173.713175	-76.956790	1167.115719	-283.178588	-62.700534	1017.571716	-31.339695	-50.098558	983.854585	-412.147841	49.959921	909.668255	-9.932529	134.431565	886.092417	-24.852504	192.591996	823.898099	-34.532422	152.123293	918.689426	-31.148412	288.269191	766.292801	-57.170635	274.312529	758.670535	-172.787496	246.954292	657.342782	-28.535106	251.202299	569.528445	-44.146884	213.166020	492.215215	-47.107866	278.907766	567.824840	-71.320996	190.663992	389.081862	-63.675386	204.029679	410.969815	-146.832985	143.853030	348.006197	-107.886818	379.209905	404.514275	-102.086220	310.311164	352.286889	-39.437077	39.474306	891.789629	-426.261352	117.557949	855.311632	-414.284101	139.271309	882.444671	-402.742459	168.357951	782.499414	-411.810048	238.617641	698.988219	-398.029867	236.457094	686.888014	-278.610162	-20.573643	421.958414	-383.297071	-72.041732	433.514467	-336.390190	7.767266	274.774070	-398.972903	142.104752	617.922096	-427.015005	111.445369	537.204657	-407.813493	41.970667	482.487820	-400.862493	136.676236	524.024505	-382.950258	85.190728	233.169323	-343.751736	-217.987812	833.705741	-213.176342	-104.012110	80.375151	-418.199968	-103.906816	80.193305	-18.261875	
751	3.7550	425.225493	1250.097911	-33.057229	443.007694	1270.807530	-344.084124	393.543986	1316.497142	-197.460381	386.983548	1163.718201	-198.023946	427.664243	978.824495	19.122642	631.038306	888.341339	-51.622501	463.830459	1018.222973	-466.368402	631.895186	876.436372	-410.906961	-127.921919	1102.892648	-225.278254	39.904530	1110.636331	-374.842023	49.719790	1124.807013	-78.126967	61.760307	1027.239739	-340.535630	43.378651	1043.454783	-81.187469	-89.404150	1162.657405	-171.248847	-77.724108	1165.100383	-281.002675	-61.965168	1013.246591	-30.255915	-50.251509	982.622672	-411.380541	49.671901	905.031974	-9.308726	133.858472	880.614354	-24.523938	191.165763	817.715220	-34.758445	152.108217	912.970756	-30.781829	286.153105	759.431936	-57.219135	272.851838	752.617023	-173.042417	245.874091	650.441746	-28.586628	250.840181	562.687539	-44.174922	213.423825	485.183430	-47.253128	278.621678	561.217026	-71.229411	192.242976	381.306517	-63.620494	205.975019	403.218594	-146.733214	145.417640	340.461637	-108.048653	381.080173	396.060552	-102.142457	311.933027	344.116668	-39.524985	40.469117	891.516756	-426.236367	119.121800	856.254249	-414.207279	140.379434	883.755992	-402.508762	171.063412	784.353986	-411.863892	242.851669	702.412359	-398.067549	239.867106	689.771282	-278.480804	-20.673179	430.012731	-383.328603	-72.197133	441.937249	-336.433035	6.487954	282.551528	-398.985397	145.290000	623.226329	-427.144152	113.408275	542.917817	-407.925230	43.029293	489.320340	-400.962174	138.648960	529.134112	-383.094081	83.596852	240.437840	-343.668897	-217.982531	833.791155	-213.608137	-104.031170	80.329201	-418.214530	-104.014531	80.286929	-18.208068	
752	3.7600	425.886769	1250.962821	-32.723250	441.089381	1271.785471	-345.073067	392.470181	1317.725726	-197.638081	386.642918	1164.680224	-197.467992	427.963448	979.233651	20.495663	631.207892	888.371673	-51.462304	463.551402	1018.716584	-465.241203	632.104552	876.426563	-410.481142	-128.173971	1100.779287	-223.343254	39.392683	1110.058990	-373.183970	50.298046	1122.182824	-76.700235	61.366238	1026.524997	-339.701777	44.295217	1040.580239	-80.077530	-89.539650	1160.202235	-168.797396	-78.429009	1163.363852	-279.067895	-61.225963	1009.082204	-29.161517	-50.342142	981.476151	-410.632112	49.407992	900.633566	-8.758692	133.257145	875.083141	-24.251679	189.620365	811.479920	-35.021815	151.851246	907.291961	-30.229259	283.968886	752.560733	-57.354813	271.087600	746.170780	-173.147219	244.280372	643.669182	-28.520387	250.309799	555.870841	-44.090496	213.442693	477.936552	-47.400421	278.129812	554.635446	-71.141586	193.491636	373.481075	-63.561153	207.334082	395.635542	-146.587397	146.658431	333.323352	-107.961585	382.643400	387.584582	-102.158337	313.194729	335.846238	-39.619469	41.546825	891.278280	-426.220441	120.739359	857.357441	-413.993159	141.579995	885.203898	-402.298838	173.800211	786.289619	-411.715540	247.055577	706.164079	-398.304255	242.913120	692.706215	-278.782152	-20.440714	438.137722	-383.431625	-71.958444	450.551196	-336.775219	5.557136	290.586588	-399.016842	148.581266	628.701335	-427.414528	115.574624	548.876348	-408.174170	44.379513	496.342889	-401.053365	140.566877	534.638667	-383.301890	82.357115	247.819003	-343.604362	-217.999887	833.788195	-213.597970	-104.036250	80.346666	-418.224026	-104.019715	80.295568	-18.212246	
753	3.7650	426.643360	1251.765885	-32.575313	439.062406	1272.817356	-346.065680	391.369035	1319.038891	-197.660193	386.503299	1166.280747	-197.608616	428.597278	980.004482	21.922370	631.427381	888.396537	-51.294995	463.664222	1019.181720	-463.604448	632.223004	876.392948	-410.355956	-128.343771	1098.736139	-221.360772	38.897234	1110.007209	-371.390447	50.943163	1119.637258	-75.150411	61.028356	1026.096773	-338.861839	45.304985	1037.868741	-78.940302	-89.563709	1158.045104	-166.204556	-79.230442	1161.470431	-277.102762	-60.471997	1005.021739	-27.994125	-50.362985	980.394965	-409.894663	49.241057	896.290183	-8.298145	132.634480	869.454893	-24.075819	187.988323	805.161585	-35.293853	151.441789	901.797713	-29.423728	281.577284	745.642403	-57.273328	269.317562	739.470446	-173.172621	242.619575	636.718622	-28.539794	249.386586	549.055636	-44.096748	213.233990	470.805464	-47.465432	277.477753	547.992892	-71.033810	194.505429	366.078465	-63.358270	208.767023	388.075506	-146.390002	147.609322	326.255273	-107.909636	383.897362	378.945196	-102.212292	314.161229	327.759382	-39.620617	42.703166	891.128318	-426.059655	122.455638	858.746860	-413.708261	142.811987	886.914690	-401.946225	176.766253	788.540536	-411.575229	251.312644	710.227521	-398.435613	246.462022	695.890760	-279.070777	-19.851471	446.295157	-383.603224	-71.389536	459.041104	-336.942186	5.003314	298.552273	-399.061227	151.977249	634.382996	-427.687780	117.865267	554.898343	-408.526910	45.954736	503.449481	-401.285672	142.716862	540.440237	-383.543480	81.577376	255.672485	-343.695401	-218.020290	833.782574	-213.579874	-104.012815	80.343063	-418.212148	-104.006640	80.266638	-18.206827	
754	3.7700	427.676603	1252.722495	-32.513076	437.038852	1274.011893	-347.120330	390.273363	1320.378064	-197.719853	386.377443	1167.890142	-197.762186	429.464455	981.068843	23.393221	631.656815	888.388156	-51.120958	463.721664	1019.721029	-462.282998	632.380926	876.327590	-410.072235	-128.383842	1096.621177	-219.230182	38.400763	1109.868635	-369.717244	51.621637	1117.299216	-73.639095	60.776221	1025.776652	-337.918354	46.334230	1035.326040	-77.892056	-89.575156	1155.688591	-163.384893	-79.854951	1160.007038	-275.106070	-59.711852	1001.343697	-26.794291	-50.308269	979.476571	-409.233755	49.107784	892.003937	-8.035100	132.010501	864.032405	-23.896558	186.287151	798.823441	-35.637346	151.338802	895.929885	-28.993371	279.133195	738.586719	-57.299751	267.350368	732.689625	-173.112002	240.595699	629.734874	-28.534246	248.334182	542.176851	-43.957045	212.901351	463.527717	-47.427569	276.532053	541.280858	-70.492470	195.105587	358.432608	-63.132556	209.615375	380.680431	-145.997985	148.189223	319.346360	-107.752157	384.887843	370.224775	-102.199833	314.762694	319.542651	-39.598984	43.998997	891.177552	-425.686616	124.298559	860.369018	-413.299307	144.134456	888.933930	-401.501452	179.978165	791.241314	-411.343950	255.632715	714.921497	-398.633531	251.206355	699.902765	-279.076982	-18.937314	454.477384	-383.841215	-70.567333	467.370748	-337.034542	4.851407	306.593862	-399.103276	155.508847	640.332029	-427.988823	120.624224	561.455526	-409.329595	47.837762	510.690865	-401.658965	145.036022	546.577767	-383.937942	81.113917	263.020457	-343.692125	-218.034486	833.782234	-213.551533	-103.991019	80.367738	-418.199156	-103.875789	80.197238	-18.248115	
755	3.7750	428.809068	1253.768865	-32.718948	434.777759	1275.239701	-348.353144	389.208452	1321.728809	-197.827994	386.263537	1169.617193	-197.962173	430.728851	982.324920	24.765416	631.894195	888.334674	-50.905842	463.974007	1020.349842	-460.972489	632.612891	876.379394	-409.797007	-128.387024	1094.982830	-217.282501	37.859545	1109.848139	-368.072454	52.291466	1115.137632	-72.065766	60.629590	1025.656204	-336.986364	47.524821	1032.979408	-76.835580	-89.443066	1153.697390	-160.779851	-80.320798	1159.145084	-272.870020	-58.936426	997.933728	-25.632064	-50.263068	978.609388	-408.511577	49.059717	887.908119	-7.752364	131.410011	858.511125	-23.669387	184.484059	792.456844	-35.983996	151.266704	890.214366	-28.574572	276.470847	731.590888	-57.373648	265.299156	725.726157	-173.101288	238.491245	622.615449	-28.607724	247.062511	535.188475	-43.627843	212.430590	456.136418	-47.288147	275.244227	534.544042	-70.232444	195.408453	351.068589	-62.744006	210.314769	373.274402	-145.665159	148.418077	312.530097	-107.525097	385.581033	361.382133	-102.186781	315.076192	311.201676	-39.619747	45.313253	891.571332	-424.992244	126.277203	862.442604	-412.786201	145.544529	891.396362	-400.911432	183.401010	794.507790	-411.084921	259.957871	720.151781	-398.814439	255.702521	705.198045	-279.119495	-17.609642	462.656227	-384.158421	-69.056052	476.131670	-337.705998	5.090150	314.717513	-399.125502	159.202794	646.332896	-428.325026	123.397642	567.787644	-409.521472	49.955106	518.006266	-401.938704	147.570565	552.643271	-384.093482	81.100172	270.712618	-343.594647	-218.032664	833.765375	-213.535679	-103.975285	80.359594	-418.207829	-103.976406	80.295181	-18.164116	
